<svg xmlns="http://www.w3.org/2000/svg" width="320" height="290" viewBox="0 0 320 290">
  <circle cx="225.5" cy="29.3" r="1.0" fill="rgba(20,83,45,0.99)"/>
  <circle cx="286.3" cy="49.0" r="1.5" fill="rgba(20,83,45,0.99)"/>
  <circle cx="23.7" cy="64.7" r="1.4" fill="rgba(20,84,45,1.01)"/>
  <circle cx="215.2" cy="43.8" r="2.8" fill="rgba(20,85,46,1.00)"/>
  <circle cx="31.8" cy="60.1" r="1.4" fill="rgba(20,88,47,0.98)"/>
  <circle cx="84.8" cy="31.3" r="1.2" fill="rgba(20,88,47,0.99)"/>
  <circle cx="113.9" cy="51.8" r="1.7" fill="rgba(20,88,47,1.00)"/>
  <circle cx="268.9" cy="34.9" r="1.7" fill="rgba(20,88,47,0.99)"/>
  <circle cx="284.1" cy="52.3" r="1.4" fill="rgba(20,89,47,0.98)"/>
  <circle cx="71.2" cy="30.0" r="2.2" fill="rgba(20,90,47,1.01)"/>
  <circle cx="194.9" cy="42.5" r="2.5" fill="rgba(20,90,47,0.99)"/>
  <circle cx="221.6" cy="43.0" r="1.3" fill="rgba(20,91,48,1.01)"/>
  <circle cx="187.1" cy="36.7" r="2.5" fill="rgba(20,91,48,0.97)"/>
  <circle cx="202.4" cy="52.0" r="2.7" fill="rgba(20,92,48,0.98)"/>
  <circle cx="295.6" cy="68.7" r="1.8" fill="rgba(20,94,49,0.96)"/>
  <circle cx="48.8" cy="48.8" r="1.4" fill="rgba(20,94,49,0.98)"/>
  <circle cx="35.7" cy="64.4" r="2.0" fill="rgba(20,96,50,0.96)"/>
  <circle cx="184.5" cy="40.5" r="2.6" fill="rgba(20,96,50,0.99)"/>
  <circle cx="187.9" cy="43.3" r="1.4" fill="rgba(20,96,50,0.96)"/>
  <circle cx="102.8" cy="58.1" r="2.1" fill="rgba(20,98,50,1.00)"/>
  <circle cx="133.2" cy="43.9" r="1.7" fill="rgba(20,98,50,0.96)"/>
  <circle cx="258.7" cy="39.4" r="0.9" fill="rgba(20,99,51,0.99)"/>
  <circle cx="114.1" cy="62.8" r="1.3" fill="rgba(20,99,51,0.96)"/>
  <circle cx="150.6" cy="36.0" r="2.2" fill="rgba(20,100,51,1.00)"/>
  <circle cx="45.9" cy="58.8" r="1.7" fill="rgba(20,101,51,1.00)"/>
  <circle cx="263.8" cy="45.8" r="1.2" fill="rgba(20,101,52,1.00)"/>
  <circle cx="103.0" cy="62.4" r="1.3" fill="rgba(20,102,52,0.97)"/>
  <circle cx="37.2" cy="68.4" r="1.0" fill="rgba(20,102,52,0.96)"/>
  <circle cx="41.5" cy="65.3" r="1.9" fill="rgba(20,103,52,0.96)"/>
  <circle cx="129.8" cy="55.9" r="0.9" fill="rgba(21,106,53,0.95)"/>
  <circle cx="25.3" cy="83.6" r="2.5" fill="rgba(21,107,53,0.99)"/>
  <circle cx="163.1" cy="43.7" r="2.7" fill="rgba(21,107,54,0.96)"/>
  <circle cx="56.1" cy="57.6" r="1.7" fill="rgba(21,108,54,0.96)"/>
  <circle cx="42.6" cy="69.9" r="2.7" fill="rgba(21,109,54,0.98)"/>
  <circle cx="161.7" cy="45.7" r="2.6" fill="rgba(21,109,54,0.95)"/>
  <circle cx="63.2" cy="55.2" r="1.9" fill="rgba(21,110,54,0.94)"/>
  <circle cx="233.5" cy="54.6" r="2.6" fill="rgba(21,110,55,0.96)"/>
  <circle cx="64.4" cy="55.6" r="2.6" fill="rgba(21,110,55,0.96)"/>
  <circle cx="174.5" cy="50.9" r="2.2" fill="rgba(21,111,55,0.96)"/>
  <circle cx="65.1" cy="56.0" r="1.9" fill="rgba(21,111,55,0.97)"/>
  <circle cx="280.8" cy="71.3" r="2.3" fill="rgba(21,111,55,0.98)"/>
  <circle cx="58.3" cy="59.8" r="1.1" fill="rgba(21,111,55,0.97)"/>
  <circle cx="65.2" cy="56.8" r="2.2" fill="rgba(21,112,55,0.95)"/>
  <circle cx="31.5" cy="84.1" r="2.1" fill="rgba(21,113,56,0.96)"/>
  <circle cx="119.6" cy="73.3" r="1.3" fill="rgba(21,114,56,0.96)"/>
  <circle cx="134.0" cy="62.6" r="2.5" fill="rgba(21,115,56,0.94)"/>
  <circle cx="73.4" cy="59.7" r="1.8" fill="rgba(21,115,57,0.94)"/>
  <circle cx="262.4" cy="62.0" r="1.3" fill="rgba(21,116,57,0.94)"/>
  <circle cx="150.4" cy="56.6" r="1.6" fill="rgba(21,117,57,0.94)"/>
  <circle cx="265.0" cy="64.5" r="2.4" fill="rgba(21,117,57,0.97)"/>
  <circle cx="250.6" cy="58.9" r="2.4" fill="rgba(21,117,57,0.93)"/>
  <circle cx="171.3" cy="58.3" r="2.7" fill="rgba(21,118,57,0.97)"/>
  <circle cx="138.8" cy="63.5" r="2.3" fill="rgba(21,118,58,0.96)"/>
  <circle cx="143.8" cy="61.3" r="1.8" fill="rgba(21,119,58,0.95)"/>
  <circle cx="297.2" cy="93.5" r="2.2" fill="rgba(21,119,58,0.96)"/>
  <circle cx="42.0" cy="84.8" r="1.2" fill="rgba(21,123,59,0.95)"/>
  <circle cx="239.3" cy="66.9" r="1.5" fill="rgba(21,123,59,0.97)"/>
  <circle cx="286.2" cy="88.9" r="1.9" fill="rgba(21,124,60,0.96)"/>
  <circle cx="98.1" cy="83.8" r="2.2" fill="rgba(21,126,60,0.94)"/>
  <circle cx="280.4" cy="86.7" r="1.8" fill="rgba(21,126,60,0.94)"/>
  <circle cx="161.4" cy="67.9" r="2.0" fill="rgba(21,127,61,0.96)"/>
  <circle cx="146.2" cy="70.7" r="1.5" fill="rgba(21,127,61,0.91)"/>
  <circle cx="225.6" cy="80.4" r="1.8" fill="rgba(21,128,61,0.95)"/>
  <circle cx="30.4" cy="99.3" r="1.3" fill="rgba(21,128,61,0.92)"/>
  <circle cx="260.5" cy="75.0" r="0.9" fill="rgba(21,129,61,0.95)"/>
  <circle cx="83.7" cy="77.9" r="2.6" fill="rgba(21,130,62,0.91)"/>
  <circle cx="57.7" cy="82.1" r="1.0" fill="rgba(22,132,63,0.91)"/>
  <circle cx="249.7" cy="76.6" r="1.0" fill="rgba(22,135,64,0.94)"/>
  <circle cx="292.8" cy="102.8" r="1.8" fill="rgba(22,136,65,0.93)"/>
  <circle cx="125.0" cy="90.9" r="2.1" fill="rgba(23,138,66,0.92)"/>
  <circle cx="58.7" cy="86.2" r="1.1" fill="rgba(23,139,66,0.92)"/>
  <circle cx="271.2" cy="89.1" r="1.5" fill="rgba(23,139,66,0.91)"/>
  <circle cx="203.8" cy="97.7" r="1.1" fill="rgba(23,139,66,0.92)"/>
  <circle cx="250.5" cy="80.6" r="2.6" fill="rgba(23,140,67,0.90)"/>
  <circle cx="257.2" cy="83.4" r="2.0" fill="rgba(23,141,67,0.91)"/>
  <circle cx="196.9" cy="94.5" r="2.4" fill="rgba(24,142,68,0.94)"/>
  <circle cx="25.0" cy="111.3" r="1.7" fill="rgba(24,142,68,0.90)"/>
  <circle cx="301.4" cy="113.2" r="1.0" fill="rgba(24,144,69,0.94)"/>
  <circle cx="243.7" cy="84.1" r="1.0" fill="rgba(24,144,69,0.93)"/>
  <circle cx="118.8" cy="99.0" r="1.7" fill="rgba(24,144,69,0.94)"/>
  <circle cx="285.1" cy="102.5" r="2.6" fill="rgba(24,144,69,0.90)"/>
  <circle cx="89.1" cy="92.6" r="1.7" fill="rgba(24,146,70,0.93)"/>
  <circle cx="65.1" cy="89.4" r="1.2" fill="rgba(24,146,70,0.91)"/>
  <circle cx="172.9" cy="85.6" r="1.5" fill="rgba(25,147,70,0.90)"/>
  <circle cx="193.9" cy="96.3" r="2.6" fill="rgba(25,147,70,0.93)"/>
  <circle cx="129.2" cy="94.4" r="2.3" fill="rgba(25,147,70,0.90)"/>
  <circle cx="290.0" cy="108.3" r="1.7" fill="rgba(25,148,70,0.94)"/>
  <circle cx="121.9" cy="100.4" r="2.0" fill="rgba(25,149,71,0.89)"/>
  <circle cx="131.8" cy="94.4" r="1.9" fill="rgba(25,149,71,0.93)"/>
  <circle cx="261.3" cy="91.2" r="2.1" fill="rgba(25,150,71,0.91)"/>
  <circle cx="23.7" cy="117.8" r="2.4" fill="rgba(26,152,73,0.91)"/>
  <circle cx="106.0" cy="107.8" r="1.5" fill="rgba(26,152,73,0.90)"/>
  <circle cx="173.3" cy="91.6" r="1.9" fill="rgba(26,154,74,0.89)"/>
  <circle cx="148.2" cy="91.9" r="2.4" fill="rgba(26,155,74,0.92)"/>
  <circle cx="291.5" cy="116.3" r="2.1" fill="rgba(27,159,76,0.89)"/>
  <circle cx="156.8" cy="95.8" r="2.5" fill="rgba(27,162,77,0.90)"/>
  <circle cx="223.6" cy="108.1" r="2.0" fill="rgba(28,165,79,0.89)"/>
  <circle cx="80.7" cy="103.2" r="2.1" fill="rgba(28,165,79,0.92)"/>
  <circle cx="39.3" cy="116.5" r="1.7" fill="rgba(28,165,79,0.90)"/>
  <circle cx="260.4" cy="103.6" r="1.1" fill="rgba(28,166,79,0.90)"/>
  <circle cx="232.8" cy="105.2" r="2.1" fill="rgba(28,167,80,0.92)"/>
  <circle cx="99.5" cy="114.2" r="2.4" fill="rgba(29,168,80,0.87)"/>
  <circle cx="29.4" cy="127.4" r="2.1" fill="rgba(30,173,83,0.90)"/>
  <circle cx="20.3" cy="131.8" r="1.0" fill="rgba(30,174,83,0.90)"/>
  <circle cx="198.5" cy="118.2" r="1.6" fill="rgba(30,175,83,0.87)"/>
  <circle cx="135.9" cy="111.5" r="2.5" fill="rgba(30,175,84,0.87)"/>
  <circle cx="184.5" cy="111.8" r="1.8" fill="rgba(30,175,84,0.89)"/>
  <circle cx="66.2" cy="111.3" r="2.2" fill="rgba(30,176,84,0.91)"/>
  <circle cx="271.6" cy="115.6" r="1.4" fill="rgba(30,176,84,0.89)"/>
  <circle cx="144.2" cy="109.3" r="1.7" fill="rgba(30,176,84,0.88)"/>
  <circle cx="58.6" cy="114.7" r="1.0" fill="rgba(30,177,85,0.89)"/>
  <circle cx="180.9" cy="113.2" r="2.3" fill="rgba(31,179,85,0.90)"/>
  <circle cx="126.4" cy="119.2" r="2.1" fill="rgba(31,180,86,0.87)"/>
  <circle cx="228.8" cy="118.0" r="1.9" fill="rgba(31,182,87,0.87)"/>
  <circle cx="277.4" cy="123.5" r="1.1" fill="rgba(31,183,87,0.88)"/>
  <circle cx="187.7" cy="118.7" r="1.4" fill="rgba(31,183,87,0.90)"/>
  <circle cx="289.3" cy="130.2" r="2.0" fill="rgba(31,183,87,0.89)"/>
  <circle cx="292.3" cy="132.4" r="2.0" fill="rgba(32,184,88,0.90)"/>
  <circle cx="68.9" cy="118.7" r="1.0" fill="rgba(32,186,89,0.89)"/>
  <circle cx="83.8" cy="120.1" r="2.5" fill="rgba(32,186,89,0.86)"/>
  <circle cx="130.0" cy="122.8" r="1.5" fill="rgba(32,187,89,0.88)"/>
  <circle cx="210.3" cy="130.8" r="2.0" fill="rgba(32,187,89,0.89)"/>
  <circle cx="189.1" cy="122.7" r="1.2" fill="rgba(32,187,89,0.87)"/>
  <circle cx="284.8" cy="130.6" r="2.2" fill="rgba(32,187,89,0.85)"/>
  <circle cx="112.2" cy="132.5" r="1.8" fill="rgba(32,189,90,0.88)"/>
  <circle cx="59.4" cy="123.1" r="1.7" fill="rgba(33,189,90,0.88)"/>
  <circle cx="89.9" cy="125.1" r="1.1" fill="rgba(33,190,91,0.89)"/>
  <circle cx="235.7" cy="122.0" r="2.3" fill="rgba(33,191,91,0.89)"/>
  <circle cx="272.5" cy="126.7" r="2.3" fill="rgba(33,191,91,0.89)"/>
  <circle cx="83.8" cy="124.8" r="1.9" fill="rgba(33,193,92,0.86)"/>
  <circle cx="64.1" cy="124.5" r="1.6" fill="rgba(33,193,92,0.85)"/>
  <circle cx="154.6" cy="120.6" r="2.0" fill="rgba(33,193,92,0.89)"/>
  <circle cx="60.2" cy="125.9" r="1.9" fill="rgba(33,193,92,0.87)"/>
  <circle cx="187.5" cy="126.6" r="0.9" fill="rgba(33,194,92,0.85)"/>
  <circle cx="38.3" cy="136.0" r="1.5" fill="rgba(34,194,93,0.88)"/>
  <circle cx="34.8" cy="138.0" r="1.4" fill="rgba(34,195,93,0.88)"/>
  <circle cx="63.8" cy="126.3" r="1.7" fill="rgba(34,195,93,0.87)"/>
  <circle cx="149.0" cy="123.0" r="2.3" fill="rgba(34,195,93,0.87)"/>
  <circle cx="164.4" cy="122.8" r="1.4" fill="rgba(34,196,94,0.86)"/>
  <circle cx="147.5" cy="124.8" r="1.2" fill="rgba(34,197,94,0.87)"/>
  <circle cx="45.5" cy="134.9" r="1.9" fill="rgba(35,197,95,0.89)"/>
  <circle cx="30.6" cy="141.7" r="1.4" fill="rgba(35,198,95,0.84)"/>
  <circle cx="152.6" cy="126.3" r="1.1" fill="rgba(39,199,98,0.86)"/>
  <circle cx="174.0" cy="128.5" r="1.7" fill="rgba(40,200,99,0.84)"/>
  <circle cx="89.5" cy="133.6" r="2.0" fill="rgba(42,200,100,0.86)"/>
  <circle cx="186.0" cy="132.6" r="2.4" fill="rgba(42,200,100,0.87)"/>
  <circle cx="114.9" cy="140.9" r="1.8" fill="rgba(44,201,101,0.88)"/>
  <circle cx="300.9" cy="148.2" r="2.2" fill="rgba(45,202,102,0.85)"/>
  <circle cx="213.6" cy="140.8" r="1.2" fill="rgba(45,202,103,0.87)"/>
  <circle cx="240.5" cy="132.3" r="0.9" fill="rgba(46,202,104,0.87)"/>
  <circle cx="74.8" cy="133.5" r="2.3" fill="rgba(47,202,104,0.84)"/>
  <circle cx="254.1" cy="134.5" r="2.0" fill="rgba(51,204,107,0.84)"/>
  <circle cx="90.1" cy="139.2" r="1.4" fill="rgba(52,205,108,0.83)"/>
  <circle cx="200.8" cy="143.5" r="1.6" fill="rgba(53,205,109,0.84)"/>
  <circle cx="267.8" cy="139.0" r="1.3" fill="rgba(53,205,109,0.87)"/>
  <circle cx="196.7" cy="143.3" r="1.0" fill="rgba(56,206,111,0.83)"/>
  <circle cx="250.1" cy="137.7" r="2.3" fill="rgba(58,207,112,0.86)"/>
  <circle cx="298.2" cy="153.2" r="1.4" fill="rgba(59,208,114,0.86)"/>
  <circle cx="293.6" cy="151.7" r="1.0" fill="rgba(60,208,114,0.85)"/>
  <circle cx="245.3" cy="138.8" r="2.0" fill="rgba(60,208,114,0.84)"/>
  <circle cx="275.6" cy="145.0" r="1.9" fill="rgba(60,208,114,0.86)"/>
  <circle cx="294.8" cy="153.0" r="1.1" fill="rgba(62,209,116,0.87)"/>
  <circle cx="300.5" cy="157.1" r="1.0" fill="rgba(67,211,120,0.82)"/>
  <circle cx="285.8" cy="152.3" r="1.0" fill="rgba(67,211,120,0.84)"/>
  <circle cx="134.8" cy="145.4" r="1.1" fill="rgba(67,211,120,0.86)"/>
  <circle cx="85.9" cy="146.5" r="1.6" fill="rgba(69,212,121,0.83)"/>
  <circle cx="158.6" cy="143.2" r="1.1" fill="rgba(70,212,122,0.84)"/>
  <circle cx="62.5" cy="147.3" r="1.9" fill="rgba(72,213,123,0.86)"/>
  <circle cx="59.8" cy="148.1" r="1.0" fill="rgba(72,213,124,0.82)"/>
  <circle cx="139.4" cy="147.1" r="1.1" fill="rgba(73,213,124,0.82)"/>
  <circle cx="160.7" cy="145.7" r="1.1" fill="rgba(75,214,126,0.84)"/>
  <circle cx="189.0" cy="150.4" r="2.1" fill="rgba(75,214,126,0.82)"/>
  <circle cx="215.8" cy="154.4" r="2.2" fill="rgba(76,215,127,0.81)"/>
  <circle cx="111.0" cy="158.1" r="2.1" fill="rgba(79,216,129,0.84)"/>
  <circle cx="72.0" cy="151.2" r="1.9" fill="rgba(81,217,130,0.83)"/>
  <circle cx="293.2" cy="160.6" r="1.4" fill="rgba(81,217,130,0.85)"/>
  <circle cx="276.2" cy="156.9" r="1.6" fill="rgba(84,218,133,0.81)"/>
  <circle cx="40.9" cy="159.7" r="1.0" fill="rgba(85,218,134,0.85)"/>
  <circle cx="284.9" cy="160.2" r="1.0" fill="rgba(86,219,134,0.81)"/>
  <circle cx="243.0" cy="153.3" r="2.0" fill="rgba(86,219,135,0.83)"/>
  <circle cx="238.5" cy="154.7" r="2.0" fill="rgba(88,220,136,0.83)"/>
  <circle cx="211.8" cy="161.2" r="1.1" fill="rgba(88,220,136,0.82)"/>
  <circle cx="120.6" cy="159.8" r="2.4" fill="rgba(89,220,137,0.82)"/>
  <circle cx="273.8" cy="158.5" r="1.5" fill="rgba(89,220,137,0.81)"/>
  <circle cx="275.0" cy="159.0" r="0.9" fill="rgba(89,220,137,0.83)"/>
  <circle cx="92.7" cy="159.0" r="1.8" fill="rgba(91,221,138,0.82)"/>
  <circle cx="207.1" cy="162.9" r="1.9" fill="rgba(91,221,138,0.82)"/>
  <circle cx="102.6" cy="162.2" r="1.3" fill="rgba(92,221,139,0.84)"/>
  <circle cx="263.9" cy="158.4" r="2.2" fill="rgba(93,222,140,0.83)"/>
  <circle cx="85.9" cy="159.2" r="2.2" fill="rgba(94,222,141,0.80)"/>
  <circle cx="217.4" cy="162.3" r="1.9" fill="rgba(94,222,141,0.85)"/>
  <circle cx="240.6" cy="157.6" r="2.3" fill="rgba(94,222,141,0.80)"/>
  <circle cx="277.6" cy="162.5" r="1.8" fill="rgba(95,223,142,0.82)"/>
  <circle cx="141.5" cy="158.5" r="0.9" fill="rgba(95,223,142,0.84)"/>
  <circle cx="126.3" cy="162.2" r="1.0" fill="rgba(97,223,143,0.81)"/>
  <circle cx="256.7" cy="159.7" r="1.9" fill="rgba(98,224,144,0.84)"/>
  <circle cx="122.7" cy="163.7" r="1.4" fill="rgba(98,224,144,0.84)"/>
  <circle cx="201.7" cy="164.7" r="1.7" fill="rgba(98,224,144,0.82)"/>
  <circle cx="263.9" cy="161.1" r="2.0" fill="rgba(99,224,144,0.80)"/>
  <circle cx="194.5" cy="163.5" r="1.9" fill="rgba(99,224,145,0.84)"/>
  <circle cx="261.1" cy="161.2" r="1.1" fill="rgba(100,225,145,0.80)"/>
  <circle cx="233.5" cy="161.8" r="1.5" fill="rgba(100,225,146,0.80)"/>
  <circle cx="131.9" cy="163.1" r="1.3" fill="rgba(101,225,146,0.83)"/>
  <circle cx="83.6" cy="162.9" r="2.0" fill="rgba(102,225,147,0.84)"/>
  <circle cx="299.6" cy="171.0" r="1.4" fill="rgba(102,226,147,0.80)"/>
  <circle cx="140.5" cy="163.8" r="1.9" fill="rgba(105,227,149,0.80)"/>
  <circle cx="173.6" cy="163.6" r="1.3" fill="rgba(106,227,150,0.81)"/>
  <circle cx="25.9" cy="172.7" r="1.8" fill="rgba(107,228,151,0.83)"/>
  <circle cx="216.9" cy="168.6" r="1.9" fill="rgba(107,228,151,0.84)"/>
  <circle cx="283.1" cy="170.2" r="1.8" fill="rgba(109,228,152,0.81)"/>
  <circle cx="258.4" cy="166.3" r="2.1" fill="rgba(110,229,153,0.79)"/>
  <circle cx="65.5" cy="166.8" r="1.8" fill="rgba(110,229,153,0.82)"/>
  <circle cx="292.9" cy="173.0" r="2.4" fill="rgba(110,229,153,0.80)"/>
  <circle cx="107.7" cy="172.4" r="1.7" fill="rgba(112,230,155,0.82)"/>
  <circle cx="283.4" cy="171.8" r="1.5" fill="rgba(112,230,155,0.82)"/>
  <circle cx="172.1" cy="166.9" r="1.4" fill="rgba(113,230,155,0.79)"/>
  <circle cx="160.4" cy="167.4" r="2.2" fill="rgba(114,231,157,0.78)"/>
  <circle cx="86.7" cy="169.8" r="2.1" fill="rgba(115,231,157,0.80)"/>
  <circle cx="225.6" cy="171.1" r="1.6" fill="rgba(116,231,158,0.81)"/>
  <circle cx="42.0" cy="173.6" r="2.2" fill="rgba(116,232,158,0.79)"/>
  <circle cx="191.3" cy="171.6" r="1.0" fill="rgba(117,232,158,0.82)"/>
  <circle cx="222.6" cy="172.0" r="2.0" fill="rgba(117,232,159,0.83)"/>
  <circle cx="217.8" cy="173.0" r="1.2" fill="rgba(117,232,159,0.80)"/>
  <circle cx="164.3" cy="169.2" r="1.8" fill="rgba(118,232,159,0.81)"/>
  <circle cx="240.3" cy="170.1" r="1.1" fill="rgba(118,232,159,0.83)"/>
  <circle cx="299.7" cy="177.4" r="1.9" fill="rgba(118,232,160,0.82)"/>
  <circle cx="56.2" cy="172.4" r="1.1" fill="rgba(119,233,160,0.80)"/>
  <circle cx="290.9" cy="176.4" r="2.2" fill="rgba(119,233,160,0.79)"/>
  <circle cx="116.0" cy="175.0" r="1.4" fill="rgba(119,233,160,0.78)"/>
  <circle cx="224.6" cy="172.9" r="2.1" fill="rgba(119,233,160,0.78)"/>
  <circle cx="264.9" cy="172.2" r="2.0" fill="rgba(120,233,161,0.79)"/>
  <circle cx="36.9" cy="176.9" r="1.8" fill="rgba(122,234,162,0.83)"/>
  <circle cx="263.6" cy="173.0" r="2.3" fill="rgba(122,234,162,0.80)"/>
  <circle cx="80.6" cy="173.0" r="1.8" fill="rgba(122,234,163,0.83)"/>
  <circle cx="24.7" cy="179.3" r="1.6" fill="rgba(123,234,163,0.78)"/>
  <circle cx="237.0" cy="173.7" r="1.3" fill="rgba(124,235,164,0.83)"/>
  <circle cx="253.5" cy="173.4" r="1.9" fill="rgba(124,235,164,0.82)"/>
  <circle cx="150.8" cy="173.4" r="1.4" fill="rgba(125,235,165,0.83)"/>
  <circle cx="112.5" cy="178.4" r="1.5" fill="rgba(125,235,165,0.81)"/>
  <circle cx="104.1" cy="178.0" r="1.2" fill="rgba(126,236,166,0.82)"/>
  <circle cx="83.9" cy="175.5" r="2.0" fill="rgba(126,236,166,0.82)"/>
  <circle cx="155.1" cy="174.3" r="1.0" fill="rgba(127,236,167,0.79)"/>
  <circle cx="40.6" cy="178.8" r="2.2" fill="rgba(127,236,167,0.82)"/>
  <circle cx="155.2" cy="175.4" r="1.0" fill="rgba(129,237,168,0.79)"/>
  <circle cx="131.1" cy="177.7" r="1.9" fill="rgba(130,237,169,0.78)"/>
  <circle cx="296.2" cy="181.7" r="1.9" fill="rgba(130,237,169,0.79)"/>
  <circle cx="286.1" cy="180.4" r="1.9" fill="rgba(130,237,169,0.78)"/>
  <circle cx="100.0" cy="179.4" r="1.3" fill="rgba(130,237,169,0.82)"/>
  <circle cx="86.0" cy="178.1" r="1.5" fill="rgba(131,238,170,0.81)"/>
  <circle cx="259.4" cy="177.8" r="2.1" fill="rgba(132,238,170,0.79)"/>
  <circle cx="87.4" cy="178.6" r="1.0" fill="rgba(132,238,170,0.80)"/>
  <circle cx="106.0" cy="181.0" r="1.9" fill="rgba(132,238,170,0.81)"/>
  <circle cx="29.7" cy="182.7" r="1.9" fill="rgba(133,238,171,0.80)"/>
  <circle cx="223.5" cy="179.6" r="1.4" fill="rgba(133,238,171,0.81)"/>
  <circle cx="248.3" cy="178.3" r="1.7" fill="rgba(133,239,172,0.79)"/>
  <circle cx="237.0" cy="179.1" r="1.6" fill="rgba(134,239,172,0.81)"/>
  <circle cx="195.0" cy="180.7" r="1.1" fill="rgba(134,239,172,0.79)"/>
  <circle cx="169.9" cy="178.6" r="1.0" fill="rgba(135,239,172,0.78)"/>
  <circle cx="27.9" cy="184.1" r="1.2" fill="rgba(136,239,172,0.80)"/>
  <circle cx="136.2" cy="180.3" r="1.9" fill="rgba(136,239,171,0.78)"/>
  <circle cx="24.0" cy="184.7" r="1.7" fill="rgba(136,239,171,0.77)"/>
  <circle cx="176.2" cy="180.1" r="1.6" fill="rgba(137,239,171,0.78)"/>
  <circle cx="247.1" cy="180.1" r="1.1" fill="rgba(137,239,171,0.80)"/>
  <circle cx="148.4" cy="180.1" r="1.1" fill="rgba(138,239,171,0.79)"/>
  <circle cx="60.1" cy="181.3" r="1.5" fill="rgba(138,239,171,0.81)"/>
  <circle cx="162.4" cy="180.3" r="2.3" fill="rgba(139,239,171,0.79)"/>
  <circle cx="201.2" cy="183.3" r="1.3" fill="rgba(139,239,171,0.77)"/>
  <circle cx="151.1" cy="180.6" r="1.6" fill="rgba(139,239,171,0.81)"/>
  <circle cx="92.1" cy="182.3" r="1.7" fill="rgba(139,239,171,0.79)"/>
  <circle cx="19.3" cy="186.1" r="1.6" fill="rgba(139,239,171,0.81)"/>
  <circle cx="212.0" cy="184.3" r="1.3" fill="rgba(140,239,170,0.78)"/>
  <circle cx="175.5" cy="181.7" r="1.2" fill="rgba(141,238,170,0.77)"/>
  <circle cx="178.0" cy="182.0" r="1.1" fill="rgba(141,238,170,0.80)"/>
  <circle cx="199.4" cy="184.0" r="2.2" fill="rgba(141,238,170,0.77)"/>
  <circle cx="290.6" cy="185.4" r="1.5" fill="rgba(141,238,170,0.79)"/>
  <circle cx="287.7" cy="185.4" r="1.3" fill="rgba(142,238,170,0.80)"/>
  <circle cx="205.0" cy="185.3" r="1.0" fill="rgba(143,238,169,0.81)"/>
  <circle cx="61.4" cy="183.7" r="1.3" fill="rgba(144,238,169,0.77)"/>
  <circle cx="243.3" cy="183.0" r="2.0" fill="rgba(144,238,169,0.79)"/>
  <circle cx="289.3" cy="186.9" r="1.4" fill="rgba(146,238,169,0.77)"/>
  <circle cx="220.0" cy="185.6" r="1.0" fill="rgba(146,238,169,0.80)"/>
  <circle cx="299.0" cy="188.0" r="1.9" fill="rgba(146,238,168,0.77)"/>
  <circle cx="185.1" cy="185.0" r="1.4" fill="rgba(147,238,168,0.76)"/>
  <circle cx="84.5" cy="185.5" r="1.7" fill="rgba(148,238,168,0.81)"/>
  <circle cx="93.1" cy="186.2" r="0.9" fill="rgba(148,238,168,0.78)"/>
  <circle cx="61.3" cy="185.9" r="2.0" fill="rgba(149,238,168,0.80)"/>
  <circle cx="26.9" cy="188.8" r="1.1" fill="rgba(149,238,168,0.80)"/>
  <circle cx="103.3" cy="188.0" r="1.8" fill="rgba(150,238,167,0.79)"/>
  <circle cx="201.9" cy="187.9" r="1.3" fill="rgba(150,238,167,0.81)"/>
  <circle cx="228.1" cy="187.0" r="1.4" fill="rgba(151,238,167,0.79)"/>
  <circle cx="274.0" cy="187.5" r="2.0" fill="rgba(151,238,167,0.79)"/>
  <circle cx="150.6" cy="186.1" r="1.3" fill="rgba(151,238,167,0.78)"/>
  <circle cx="270.8" cy="187.6" r="2.0" fill="rgba(152,238,167,0.79)"/>
  <circle cx="99.5" cy="188.2" r="1.9" fill="rgba(152,238,167,0.80)"/>
  <circle cx="55.0" cy="187.7" r="1.4" fill="rgba(152,238,167,0.78)"/>
  <circle cx="31.6" cy="189.7" r="1.3" fill="rgba(153,238,167,0.80)"/>
  <circle cx="53.1" cy="188.2" r="2.0" fill="rgba(153,238,167,0.78)"/>
  <circle cx="105.8" cy="189.2" r="1.1" fill="rgba(153,238,167,0.77)"/>
  <circle cx="60.2" cy="187.9" r="1.4" fill="rgba(153,238,166,0.76)"/>
  <circle cx="69.9" cy="187.7" r="1.4" fill="rgba(153,238,166,0.77)"/>
  <circle cx="91.2" cy="188.8" r="1.8" fill="rgba(155,237,166,0.77)"/>
  <circle cx="152.7" cy="187.8" r="1.6" fill="rgba(155,237,166,0.78)"/>
  <circle cx="193.9" cy="189.2" r="1.3" fill="rgba(155,237,166,0.78)"/>
  <circle cx="280.9" cy="189.9" r="1.0" fill="rgba(156,237,166,0.78)"/>
  <circle cx="91.0" cy="189.3" r="2.1" fill="rgba(156,237,166,0.78)"/>
  <circle cx="100.7" cy="190.0" r="1.4" fill="rgba(156,237,166,0.77)"/>
  <circle cx="244.0" cy="188.7" r="2.0" fill="rgba(156,237,166,0.77)"/>
  <circle cx="89.8" cy="189.4" r="1.0" fill="rgba(156,237,166,0.80)"/>
  <circle cx="300.6" cy="191.5" r="1.6" fill="rgba(156,237,166,0.76)"/>
  <circle cx="80.8" cy="189.1" r="1.1" fill="rgba(157,237,166,0.76)"/>
  <circle cx="124.0" cy="190.1" r="1.5" fill="rgba(157,237,165,0.79)"/>
  <circle cx="157.2" cy="188.9" r="1.1" fill="rgba(157,237,165,0.78)"/>
  <circle cx="80.7" cy="189.5" r="1.7" fill="rgba(157,237,165,0.78)"/>
  <circle cx="206.1" cy="191.1" r="1.9" fill="rgba(158,237,165,0.77)"/>
  <circle cx="107.3" cy="191.3" r="1.6" fill="rgba(158,237,165,0.80)"/>
  <circle cx="114.5" cy="191.2" r="1.8" fill="rgba(158,237,165,0.80)"/>
  <circle cx="25.4" cy="192.2" r="2.2" fill="rgba(159,237,165,0.76)"/>
  <circle cx="266.4" cy="190.3" r="1.4" fill="rgba(159,237,165,0.79)"/>
  <circle cx="57.3" cy="190.4" r="1.3" fill="rgba(159,237,165,0.76)"/>
  <circle cx="112.3" cy="191.6" r="2.1" fill="rgba(159,237,165,0.77)"/>
  <circle cx="216.8" cy="191.2" r="2.3" fill="rgba(159,237,165,0.77)"/>
  <circle cx="123.2" cy="191.3" r="1.6" fill="rgba(160,237,165,0.77)"/>
  <circle cx="171.5" cy="190.5" r="1.6" fill="rgba(161,237,164,0.78)"/>
  <circle cx="117.5" cy="191.9" r="1.6" fill="rgba(161,237,164,0.78)"/>
  <circle cx="256.4" cy="190.7" r="1.1" fill="rgba(161,237,164,0.77)"/>
  <circle cx="135.1" cy="191.0" r="1.8" fill="rgba(161,237,164,0.76)"/>
  <circle cx="125.4" cy="191.5" r="1.9" fill="rgba(161,237,164,0.78)"/>
  <circle cx="202.0" cy="192.0" r="2.1" fill="rgba(161,237,164,0.80)"/>
  <circle cx="280.4" cy="192.6" r="1.0" fill="rgba(163,237,164,0.76)"/>
  <circle cx="207.6" cy="193.0" r="1.8" fill="rgba(163,237,164,0.79)"/>
  <circle cx="92.0" cy="192.2" r="2.2" fill="rgba(163,237,164,0.76)"/>
  <circle cx="145.6" cy="191.7" r="1.0" fill="rgba(163,237,164,0.77)"/>
  <circle cx="237.2" cy="191.9" r="2.3" fill="rgba(163,237,164,0.76)"/>
  <circle cx="210.9" cy="193.2" r="1.9" fill="rgba(163,237,164,0.80)"/>
  <circle cx="97.1" cy="192.7" r="1.4" fill="rgba(163,237,164,0.77)"/>
  <circle cx="190.2" cy="192.4" r="1.3" fill="rgba(164,237,164,0.78)"/>
  <circle cx="270.6" cy="192.5" r="1.1" fill="rgba(164,237,164,0.77)"/>
  <circle cx="80.5" cy="192.2" r="1.8" fill="rgba(164,237,164,0.76)"/>
  <circle cx="158.1" cy="191.9" r="1.3" fill="rgba(164,237,163,0.79)"/>
  <circle cx="57.3" cy="192.7" r="1.0" fill="rgba(164,237,163,0.77)"/>
  <circle cx="120.6" cy="193.2" r="1.7" fill="rgba(165,237,163,0.76)"/>
  <circle cx="259.8" cy="192.6" r="2.0" fill="rgba(165,237,163,0.78)"/>
  <circle cx="188.0" cy="193.0" r="1.9" fill="rgba(165,237,163,0.76)"/>
  <circle cx="128.2" cy="193.7" r="1.2" fill="rgba(166,237,163,0.76)"/>
  <circle cx="238.1" cy="193.2" r="1.0" fill="rgba(166,237,163,0.80)"/>
  <circle cx="66.8" cy="193.5" r="1.6" fill="rgba(167,237,163,0.77)"/>
  <circle cx="196.5" cy="194.0" r="1.9" fill="rgba(167,237,163,0.76)"/>
  <circle cx="196.9" cy="194.1" r="1.3" fill="rgba(167,237,163,0.76)"/>
  <circle cx="33.4" cy="194.8" r="2.3" fill="rgba(167,236,163,0.79)"/>
  <circle cx="249.9" cy="193.5" r="1.4" fill="rgba(167,236,163,0.76)"/>
  <circle cx="142.7" cy="193.7" r="1.6" fill="rgba(167,236,162,0.79)"/>
  <circle cx="218.5" cy="194.5" r="1.3" fill="rgba(168,236,162,0.79)"/>
  <circle cx="27.0" cy="195.2" r="1.4" fill="rgba(168,236,162,0.77)"/>
  <circle cx="197.4" cy="194.5" r="1.5" fill="rgba(168,236,162,0.80)"/>
  <circle cx="115.2" cy="194.8" r="1.1" fill="rgba(168,236,162,0.77)"/>
  <circle cx="210.4" cy="195.0" r="1.9" fill="rgba(168,236,162,0.78)"/>
  <circle cx="235.3" cy="194.6" r="1.5" fill="rgba(169,236,162,0.76)"/>
  <circle cx="266.3" cy="194.8" r="1.0" fill="rgba(169,236,162,0.79)"/>
  <circle cx="219.4" cy="195.2" r="1.1" fill="rgba(170,236,162,0.77)"/>
  <circle cx="160.8" cy="194.5" r="2.1" fill="rgba(170,236,162,0.75)"/>
  <circle cx="203.8" cy="195.6" r="2.1" fill="rgba(170,236,162,0.79)"/>
  <circle cx="209.5" cy="195.8" r="1.8" fill="rgba(170,236,162,0.77)"/>
  <circle cx="244.3" cy="195.1" r="1.9" fill="rgba(171,236,162,0.78)"/>
  <circle cx="40.7" cy="195.9" r="1.9" fill="rgba(171,236,162,0.79)"/>
  <circle cx="257.6" cy="195.2" r="1.2" fill="rgba(171,236,161,0.78)"/>
  <circle cx="266.7" cy="195.4" r="1.9" fill="rgba(171,236,161,0.78)"/>
  <circle cx="56.3" cy="195.7" r="1.4" fill="rgba(171,236,161,0.78)"/>
  <circle cx="162.2" cy="195.3" r="1.7" fill="rgba(171,236,161,0.77)"/>
  <circle cx="214.8" cy="196.0" r="1.0" fill="rgba(171,236,161,0.76)"/>
  <circle cx="85.6" cy="195.7" r="1.1" fill="rgba(171,236,161,0.79)"/>
  <circle cx="156.9" cy="195.4" r="2.0" fill="rgba(172,236,161,0.75)"/>
  <circle cx="68.0" cy="195.6" r="1.1" fill="rgba(172,236,161,0.78)"/>
  <circle cx="239.2" cy="196.2" r="1.8" fill="rgba(173,236,161,0.77)"/>
  <circle cx="41.0" cy="196.9" r="2.0" fill="rgba(173,236,161,0.75)"/>
  <circle cx="85.2" cy="196.5" r="1.6" fill="rgba(174,236,161,0.79)"/>
  <circle cx="65.7" cy="196.5" r="1.6" fill="rgba(174,236,161,0.75)"/>
  <circle cx="210.5" cy="197.1" r="1.8" fill="rgba(174,236,161,0.79)"/>
  <circle cx="25.3" cy="197.5" r="0.9" fill="rgba(174,236,160,0.79)"/>
  <circle cx="57.4" cy="197.0" r="1.7" fill="rgba(174,236,160,0.77)"/>
  <circle cx="182.5" cy="196.9" r="1.7" fill="rgba(175,236,160,0.75)"/>
  <circle cx="203.3" cy="197.4" r="1.8" fill="rgba(175,236,160,0.75)"/>
  <circle cx="132.3" cy="197.2" r="0.9" fill="rgba(175,236,160,0.75)"/>
  <circle cx="192.3" cy="197.4" r="1.4" fill="rgba(175,236,160,0.75)"/>
  <circle cx="123.0" cy="197.5" r="2.1" fill="rgba(175,236,160,0.76)"/>
  <circle cx="36.5" cy="197.8" r="2.2" fill="rgba(176,236,160,0.78)"/>
  <circle cx="209.0" cy="197.9" r="2.1" fill="rgba(176,236,160,0.79)"/>
  <circle cx="258.9" cy="197.6" r="1.7" fill="rgba(176,236,160,0.78)"/>
  <circle cx="171.2" cy="197.6" r="2.0" fill="rgba(176,236,160,0.75)"/>
  <circle cx="182.9" cy="197.7" r="1.8" fill="rgba(176,236,160,0.79)"/>
  <circle cx="199.2" cy="197.9" r="1.3" fill="rgba(176,236,160,0.77)"/>
  <circle cx="110.9" cy="198.2" r="1.1" fill="rgba(177,236,160,0.74)"/>
  <circle cx="92.5" cy="198.0" r="2.0" fill="rgba(177,236,160,0.77)"/>
  <circle cx="251.7" cy="197.9" r="1.1" fill="rgba(177,236,160,0.79)"/>
  <circle cx="173.2" cy="197.9" r="2.0" fill="rgba(177,236,160,0.77)"/>
  <circle cx="218.7" cy="198.2" r="1.9" fill="rgba(177,236,160,0.77)"/>
  <circle cx="67.0" cy="198.0" r="2.2" fill="rgba(177,236,160,0.78)"/>
  <circle cx="43.3" cy="198.4" r="1.6" fill="rgba(177,236,160,0.77)"/>
  <circle cx="190.8" cy="198.2" r="1.2" fill="rgba(177,236,160,0.79)"/>
  <circle cx="82.3" cy="198.2" r="1.2" fill="rgba(177,236,160,0.77)"/>
  <circle cx="240.3" cy="198.2" r="2.3" fill="rgba(177,236,160,0.76)"/>
  <circle cx="176.0" cy="198.2" r="1.4" fill="rgba(178,236,160,0.78)"/>
  <circle cx="216.9" cy="198.5" r="1.2" fill="rgba(178,236,160,0.75)"/>
  <circle cx="245.9" cy="198.3" r="1.8" fill="rgba(178,236,159,0.77)"/>
  <circle cx="33.2" cy="198.7" r="1.1" fill="rgba(178,236,159,0.79)"/>
  <circle cx="189.6" cy="198.7" r="1.9" fill="rgba(178,236,159,0.79)"/>
  <circle cx="74.6" cy="198.6" r="0.9" fill="rgba(178,236,159,0.76)"/>
  <circle cx="290.1" cy="198.9" r="1.0" fill="rgba(178,236,159,0.79)"/>
  <circle cx="125.2" cy="198.8" r="1.6" fill="rgba(179,236,159,0.75)"/>
  <circle cx="62.2" cy="198.7" r="1.7" fill="rgba(179,236,159,0.75)"/>
  <circle cx="29.6" cy="199.1" r="1.4" fill="rgba(179,236,159,0.76)"/>
  <circle cx="240.3" cy="198.9" r="1.8" fill="rgba(179,236,159,0.79)"/>
  <circle cx="35.8" cy="199.1" r="1.3" fill="rgba(179,236,159,0.79)"/>
  <circle cx="83.6" cy="198.9" r="2.0" fill="rgba(179,236,159,0.76)"/>
  <circle cx="272.9" cy="199.0" r="1.8" fill="rgba(179,236,159,0.76)"/>
  <circle cx="46.7" cy="199.2" r="2.0" fill="rgba(179,236,159,0.76)"/>
  <circle cx="263.7" cy="199.1" r="1.3" fill="rgba(180,236,159,0.78)"/>
  <circle cx="124.3" cy="199.2" r="1.0" fill="rgba(180,236,159,0.78)"/>
  <circle cx="23.3" cy="199.4" r="1.7" fill="rgba(180,236,159,0.75)"/>
  <circle cx="193.3" cy="199.3" r="1.2" fill="rgba(180,236,159,0.74)"/>
  <circle cx="123.6" cy="199.3" r="1.8" fill="rgba(180,236,159,0.77)"/>
  <circle cx="113.0" cy="199.4" r="1.1" fill="rgba(180,236,159,0.75)"/>
  <circle cx="248.5" cy="199.3" r="1.2" fill="rgba(180,236,159,0.78)"/>
  <circle cx="259.2" cy="199.4" r="1.7" fill="rgba(180,236,159,0.77)"/>
  <circle cx="78.1" cy="199.4" r="1.0" fill="rgba(180,236,159,0.75)"/>
  <circle cx="259.1" cy="199.4" r="2.3" fill="rgba(180,235,159,0.75)"/>
  <circle cx="167.8" cy="199.4" r="1.9" fill="rgba(180,235,159,0.79)"/>
  <circle cx="284.9" cy="199.5" r="2.1" fill="rgba(180,235,159,0.77)"/>
  <circle cx="204.6" cy="199.6" r="1.3" fill="rgba(180,235,159,0.78)"/>
  <circle cx="189.7" cy="199.6" r="2.3" fill="rgba(181,235,159,0.75)"/>
  <circle cx="283.4" cy="199.6" r="1.8" fill="rgba(181,235,159,0.75)"/>
  <circle cx="202.9" cy="199.6" r="1.2" fill="rgba(181,235,159,0.76)"/>
  <circle cx="78.4" cy="199.6" r="1.0" fill="rgba(181,235,159,0.77)"/>
  <circle cx="86.1" cy="199.6" r="2.0" fill="rgba(181,235,159,0.79)"/>
  <circle cx="235.6" cy="199.6" r="2.3" fill="rgba(181,235,159,0.76)"/>
  <circle cx="262.8" cy="199.7" r="1.0" fill="rgba(181,235,159,0.78)"/>
  <circle cx="218.5" cy="199.8" r="1.8" fill="rgba(181,235,159,0.74)"/>
  <circle cx="277.8" cy="199.8" r="1.3" fill="rgba(181,235,159,0.78)"/>
  <circle cx="188.1" cy="199.7" r="1.4" fill="rgba(181,235,159,0.78)"/>
  <circle cx="266.2" cy="199.8" r="2.0" fill="rgba(181,235,159,0.78)"/>
  <circle cx="220.9" cy="199.8" r="1.4" fill="rgba(181,235,159,0.75)"/>
  <circle cx="271.6" cy="199.8" r="1.3" fill="rgba(181,235,159,0.76)"/>
  <circle cx="138.2" cy="199.8" r="1.6" fill="rgba(181,235,159,0.76)"/>
  <circle cx="191.2" cy="199.9" r="1.3" fill="rgba(181,235,159,0.78)"/>
  <circle cx="288.9" cy="199.9" r="1.1" fill="rgba(181,235,159,0.77)"/>
  <circle cx="153.4" cy="199.8" r="1.8" fill="rgba(181,235,158,0.75)"/>
  <circle cx="273.6" cy="199.9" r="1.4" fill="rgba(181,235,158,0.79)"/>
  <circle cx="44.9" cy="199.9" r="2.2" fill="rgba(181,235,158,0.77)"/>
  <circle cx="112.7" cy="199.9" r="1.3" fill="rgba(181,235,158,0.79)"/>
  <circle cx="168.5" cy="199.9" r="2.0" fill="rgba(181,235,158,0.75)"/>
  <circle cx="172.3" cy="199.9" r="1.1" fill="rgba(181,235,158,0.78)"/>
  <circle cx="27.4" cy="199.9" r="2.0" fill="rgba(181,235,158,0.75)"/>
  <circle cx="62.8" cy="199.9" r="1.6" fill="rgba(181,235,158,0.78)"/>
  <circle cx="113.8" cy="199.9" r="1.2" fill="rgba(181,235,158,0.79)"/>
  <circle cx="219.5" cy="200.0" r="1.2" fill="rgba(182,235,158,0.78)"/>
  <circle cx="159.5" cy="200.0" r="1.8" fill="rgba(182,235,158,0.77)"/>
  <circle cx="204.3" cy="200.0" r="1.9" fill="rgba(182,235,158,0.77)"/>
  <circle cx="183.8" cy="200.0" r="1.9" fill="rgba(182,235,158,0.78)"/>
  <circle cx="284.1" cy="200.0" r="1.9" fill="rgba(182,235,158,0.77)"/>
  <circle cx="107.6" cy="200.0" r="2.3" fill="rgba(182,235,158,0.77)"/>
  <circle cx="34.5" cy="200.0" r="1.0" fill="rgba(182,235,158,0.74)"/>
  <circle cx="143.6" cy="200.0" r="1.2" fill="rgba(182,235,158,0.78)"/>
  <circle cx="227.2" cy="200.0" r="1.9" fill="rgba(182,235,158,0.75)"/>
  <circle cx="61.4" cy="200.0" r="1.7" fill="rgba(182,235,158,0.76)"/>
  <circle cx="44.6" cy="200.0" r="1.5" fill="rgba(182,235,158,0.78)"/>
  <circle cx="24.2" cy="200.0" r="1.0" fill="rgba(182,235,158,0.77)"/>
  <circle cx="36.7" cy="200.0" r="2.2" fill="rgba(182,235,158,0.75)"/>
  <circle cx="256.6" cy="200.0" r="2.0" fill="rgba(182,235,158,0.75)"/>
  <circle cx="235.1" cy="200.0" r="0.9" fill="rgba(182,235,158,0.78)"/>
  <circle cx="200.6" cy="200.0" r="1.8" fill="rgba(182,235,158,0.79)"/>
  <circle cx="21.3" cy="200.0" r="2.2" fill="rgba(182,235,158,0.78)"/>
  <circle cx="224.7" cy="200.0" r="1.4" fill="rgba(182,235,158,0.77)"/>
  <circle cx="47.6" cy="200.0" r="1.4" fill="rgba(182,235,158,0.78)"/>
  <circle cx="275.4" cy="200.0" r="2.3" fill="rgba(182,235,158,0.76)"/>
  <circle cx="209.0" cy="200.0" r="0.9" fill="rgba(182,235,158,0.77)"/>
  <circle cx="115.9" cy="200.0" r="1.4" fill="rgba(182,235,158,0.77)"/>
  <circle cx="197.1" cy="200.0" r="2.0" fill="rgba(182,235,158,0.78)"/>
  <circle cx="48.4" cy="200.0" r="1.8" fill="rgba(182,235,158,0.75)"/>
  <circle cx="45.3" cy="200.0" r="2.0" fill="rgba(182,235,158,0.75)"/>
  <circle cx="30.5" cy="200.0" r="1.2" fill="rgba(182,235,158,0.75)"/>
  <circle cx="192.1" cy="200.0" r="1.0" fill="rgba(182,235,158,0.79)"/>
  <line x1="20" y1="214" x2="300" y2="214" stroke="currentColor" stroke-opacity="0.15" stroke-width="1"/>
  <text x="160" y="250" text-anchor="middle"
    font-family="&quot;SF Mono&quot;,&quot;Fira Code&quot;,&quot;Roboto Mono&quot;,Consolas,monospace"
    font-size="36" font-weight="400" letter-spacing="10"
    fill="currentColor" fill-opacity="0.80">alsDB</text>
  <text x="160" y="272" text-anchor="middle"
    font-family="&quot;SF Mono&quot;,&quot;Fira Code&quot;,Consolas,monospace"
    font-size="9.5" letter-spacing="3"
    fill="currentColor" fill-opacity="0.35">airborne lidar · database</text>
</svg>